<svg viewBox="0 0 1024 1024" version="1.1" xmlns="http://www.w3.org/2000/svg">
  <path d="M201,415l0,239c0,64 52,116 116,116l397,0c64,0 116,-52 116,-116l2,-239l-631,0z M766,286c4,28 -139,54 -307,79c-167,25 -296,40 -300,12c-4,-28 128,-71 296,-96c167,-26 307,-24 311,5z M495,326l-56,9l-12,-81l56,-8l12,80z" />
  <path d="M 163 770 a 429 429 0 0 1 -83 -254 c 0 -237 193 -430 430 -430 c 97 0 192 33 268 94 L 480 465 L 163 770 Z m 346 175 a 429 429 0 0 1 -306 -128 L 823 222 a 424 424 0 0 1 116 293 c 0 237 -192 430 -430 430 Z m 359 -767 l -23 -22 l -21 -20 l -0 0 C 734 64 624 23 509 23 C 238 23 17 244 17 516 c 0 107 35 211 101 297 l -0 0 l 19 22 l 21 24 l 1 -1 c 92 94 218 147 350 147 c 271 0 492 -220 492 -492 c 0 -126 -47 -244 -133 -336 l 1 -1 Z" fill="#cc0000"></path>
</svg>
